<?xml version="1.0" encoding="utf-8"?>
<!-- Generator: Adobe Illustrator 24.1.2, SVG Export Plug-In . SVG Version: 6.00 Build 0)  -->
<svg version="1.1" id="Layer_1" xmlns="http://www.w3.org/2000/svg" xmlns:xlink="http://www.w3.org/1999/xlink" x="0px" y="0px"
	 viewBox="0 0 368.5 48" style="enable-background:new 0 0 368.5 48;" xml:space="preserve">
<g>
	<g>
		<path d="M22.6,36.2c-0.3,0-0.6-0.1-0.8-0.3c-0.2-0.2-0.4-0.5-0.4-0.8V6.6c0-0.3,0.1-0.6,0.4-0.8c0.2-0.2,0.5-0.3,0.8-0.3h21.6
			c0.3,0,0.6,0.1,0.8,0.3c0.2,0.2,0.4,0.5,0.4,0.8v5.2c0,0.3-0.1,0.6-0.4,0.8c-0.2,0.2-0.5,0.4-0.8,0.4H30.6v4.4h12.6
			c0.3,0,0.6,0.1,0.8,0.3c0.2,0.2,0.4,0.5,0.4,0.8v4.8c0,0.3-0.1,0.6-0.4,0.8c-0.2,0.2-0.5,0.3-0.8,0.3H30.6v4.4h13.9
			c0.3,0,0.6,0.1,0.8,0.4c0.2,0.2,0.4,0.5,0.4,0.8v5.1c0,0.3-0.1,0.6-0.4,0.8c-0.2,0.2-0.5,0.3-0.8,0.3
			C44.5,36.2,22.6,36.2,22.6,36.2z"/>
		<path d="M50.9,36.2c-0.3,0-0.6-0.1-0.8-0.3s-0.3-0.5-0.3-0.8V14.5c0-0.3,0.1-0.6,0.3-0.8s0.5-0.3,0.8-0.3h6.4
			c0.3,0,0.6,0.1,0.8,0.3s0.3,0.5,0.3,0.8v1.6c0.8-0.9,1.8-1.6,3-2.2c1.3-0.6,2.7-0.9,4.3-0.9c1.6,0,3,0.4,4.3,1.1
			c1.3,0.7,2.3,1.8,3.1,3.3c0.8,1.5,1.2,3.3,1.2,5.5v12.2c0,0.3-0.1,0.6-0.4,0.8c-0.2,0.2-0.5,0.3-0.8,0.3h-7
			c-0.3,0-0.6-0.1-0.8-0.3c-0.2-0.2-0.3-0.5-0.3-0.8V23.2c0-1.1-0.3-1.9-0.8-2.5s-1.3-0.9-2.2-0.9c-1,0-1.7,0.3-2.3,0.9
			s-0.8,1.4-0.8,2.5v11.9c0,0.3-0.1,0.6-0.3,0.8s-0.5,0.3-0.8,0.3C57.8,36.2,50.9,36.2,50.9,36.2z"/>
		<path d="M79.9,36.2c-0.3,0-0.6-0.1-0.8-0.3c-0.2-0.2-0.3-0.5-0.3-0.8V14.5c0-0.3,0.1-0.6,0.3-0.8c0.2-0.2,0.5-0.3,0.8-0.3h6.5
			c0.3,0,0.6,0.1,0.8,0.3c0.2,0.2,0.4,0.5,0.4,0.8v20.6c0,0.3-0.1,0.6-0.4,0.8c-0.2,0.2-0.5,0.3-0.8,0.3
			C86.4,36.2,79.9,36.2,79.9,36.2z"/>
		<path d="M104.2,45.9c-2.4,0-4.3-0.3-5.9-0.9s-2.8-1.3-3.8-2.2c-0.9-0.9-1.6-1.7-2-2.6s-0.6-1.5-0.6-2c0-0.3,0.1-0.6,0.3-0.8
			c0.2-0.2,0.5-0.3,0.8-0.3h7.1c0.3,0,0.5,0.1,0.7,0.2c0.2,0.1,0.3,0.4,0.5,0.7c0.1,0.3,0.3,0.5,0.5,0.8s0.5,0.5,0.8,0.6
			c0.4,0.1,0.8,0.2,1.4,0.2c0.7,0,1.2-0.1,1.6-0.4c0.4-0.2,0.7-0.6,1-1.1c0.2-0.5,0.3-1.2,0.3-2v-2.9c-0.7,0.7-1.6,1.2-2.6,1.6
			c-1,0.4-2.2,0.6-3.6,0.6s-2.7-0.2-3.9-0.6c-1.1-0.4-2.1-1-2.9-1.8s-1.4-1.9-1.8-3.1c-0.5-1.3-0.7-2.8-0.8-4.5c0-0.8,0-1.5,0-2.3
			c0.1-1.6,0.3-3.1,0.7-4.4c0.4-1.3,1.1-2.3,1.8-3.2c0.8-0.9,1.8-1.5,2.9-2s2.4-0.7,3.9-0.7s2.8,0.3,3.9,0.9c1.1,0.6,2,1.3,2.8,2.2
			v-1.5c0-0.3,0.1-0.6,0.3-0.8c0.2-0.2,0.5-0.3,0.8-0.3h6.4c0.3,0,0.6,0.1,0.8,0.3c0.2,0.2,0.3,0.5,0.3,0.8v21
			c0,2.4-0.5,4.3-1.5,5.9c-1,1.5-2.4,2.7-4.2,3.4C108.6,45.5,106.5,45.9,104.2,45.9z M103.8,28.8c0.7,0,1.3-0.1,1.7-0.4
			c0.4-0.3,0.8-0.7,1-1.2s0.4-1,0.4-1.6c0-0.3,0-0.7,0-1.3c0-0.6,0-1,0-1.2c-0.1-0.6-0.2-1.2-0.4-1.6c-0.2-0.5-0.5-0.9-1-1.2
			c-0.4-0.3-1-0.4-1.7-0.4c-0.8,0-1.4,0.2-1.8,0.5s-0.8,0.7-0.9,1.3c-0.2,0.5-0.3,1.2-0.4,1.9c-0.1,0.6-0.1,1.2,0,1.8
			c0.1,0.7,0.2,1.3,0.4,1.9c0.2,0.5,0.5,1,0.9,1.3S103,28.8,103.8,28.8z"/>
		<path d="M121.8,36.2c-0.3,0-0.6-0.1-0.8-0.3c-0.2-0.2-0.3-0.5-0.3-0.8V14.5c0-0.3,0.1-0.6,0.3-0.8c0.2-0.2,0.5-0.3,0.8-0.3h6
			c0.3,0,0.6,0.1,0.8,0.3s0.3,0.5,0.3,0.8V16c0.6-0.7,1.4-1.4,2.4-2c1.1-0.6,2.3-1,3.7-1c3.4-0.1,5.7,1.1,7,3.7
			c0.7-1.1,1.6-1.9,2.9-2.6c1.2-0.7,2.6-1.1,4-1.1c1.5,0,2.9,0.3,4.1,1c1.2,0.7,2.2,1.7,2.9,3.2c0.7,1.4,1.1,3.3,1.1,5.6v12.4
			c0,0.3-0.1,0.6-0.3,0.8s-0.5,0.3-0.8,0.3h-6.4c-0.3,0-0.6-0.1-0.8-0.3s-0.3-0.5-0.3-0.8V23c0-0.8-0.1-1.4-0.4-1.8
			c-0.2-0.5-0.5-0.8-0.9-1s-0.8-0.3-1.3-0.3s-0.9,0.1-1.3,0.3c-0.4,0.2-0.7,0.6-0.9,1c-0.2,0.5-0.3,1.1-0.3,1.8v12.1
			c0,0.3-0.1,0.6-0.3,0.8s-0.5,0.3-0.8,0.3h-6.4c-0.3,0-0.6-0.1-0.8-0.3s-0.3-0.5-0.3-0.8V23c0-0.8-0.1-1.4-0.4-1.8
			c-0.2-0.5-0.5-0.8-0.9-1s-0.8-0.3-1.3-0.3s-0.9,0.1-1.3,0.4c-0.4,0.2-0.7,0.6-0.9,1s-0.4,1-0.4,1.8v12.1c0,0.3-0.1,0.6-0.3,0.8
			s-0.5,0.3-0.8,0.3L121.8,36.2L121.8,36.2z"/>
		<path d="M172.7,36.7c-3.7,0-6.6-0.9-8.7-2.8c-2.2-1.9-3.3-4.8-3.3-8.7c0-0.1,0-0.3,0-0.5s0-0.3,0-0.4c0.1-2.4,0.6-4.5,1.6-6.2
			c1-1.7,2.4-3,4.1-3.9c1.8-0.9,3.9-1.3,6.3-1.3c2.7,0,4.9,0.5,6.7,1.6s3.1,2.5,4,4.3s1.3,3.8,1.3,6V26c0,0.3-0.1,0.6-0.4,0.8
			c-0.2,0.2-0.5,0.4-0.8,0.4h-13.6c0,0.1,0,0.2,0,0.3c0,0.7,0.1,1.3,0.3,1.9c0.2,0.5,0.5,1,0.9,1.3s0.9,0.5,1.5,0.5
			c0.4,0,0.7-0.1,1-0.2s0.5-0.3,0.7-0.5s0.4-0.4,0.5-0.5c0.3-0.3,0.5-0.4,0.7-0.5s0.4-0.1,0.8-0.1h6.9c0.3,0,0.5,0.1,0.7,0.3
			c0.2,0.2,0.3,0.4,0.2,0.7c0,0.5-0.3,1.2-0.7,1.9c-0.4,0.7-1.2,1.5-2.1,2.2s-2.1,1.3-3.5,1.8C176.2,36.4,174.6,36.7,172.7,36.7z
			 M169.9,22.2h5.5v-0.1c0-0.8-0.1-1.5-0.3-2c-0.2-0.6-0.5-1-0.9-1.3s-0.9-0.4-1.5-0.4s-1.1,0.1-1.5,0.4s-0.7,0.7-0.9,1.3
			C170,20.6,169.9,21.3,169.9,22.2L169.9,22.2z"/>
		<path d="M198.4,36.7c-2,0-3.7-0.2-5.1-0.6c-1.4-0.4-2.6-1-3.5-1.6s-1.5-1.3-2-2s-0.6-1.3-0.7-1.8c0-0.3,0.1-0.6,0.3-0.8
			c0.2-0.2,0.5-0.3,0.7-0.3h6.4h0.1c0.1,0,0.1,0.1,0.2,0.1c0.4,0.1,0.7,0.3,1.1,0.6s0.7,0.5,1.1,0.7c0.4,0.2,0.9,0.3,1.5,0.3
			c0.5,0,0.9-0.1,1.3-0.3c0.4-0.2,0.6-0.5,0.6-0.9s-0.1-0.7-0.3-0.9c-0.2-0.3-0.7-0.5-1.4-0.8c-0.7-0.2-1.8-0.5-3.4-0.8
			c-1.4-0.3-2.8-0.7-3.9-1.3c-1.2-0.6-2.1-1.3-2.8-2.3s-1-2.2-1-3.6c0-1.2,0.4-2.4,1.2-3.5s2-2,3.5-2.8c1.6-0.7,3.5-1.1,5.8-1.1
			c1.7,0,3.3,0.2,4.6,0.6c1.3,0.4,2.5,0.9,3.4,1.5s1.6,1.3,2.1,2c0.5,0.7,0.7,1.3,0.8,1.9c0,0.3-0.1,0.6-0.3,0.8
			c-0.2,0.2-0.4,0.3-0.7,0.3h-5.8c-0.1,0-0.2,0-0.3,0s-0.2-0.1-0.2-0.1c-0.4-0.1-0.8-0.3-1.1-0.5s-0.7-0.5-1.1-0.7
			c-0.4-0.2-0.9-0.3-1.5-0.3c-0.5,0-0.9,0.1-1.2,0.4c-0.3,0.2-0.5,0.5-0.5,0.9c0,0.3,0.1,0.6,0.3,0.9s0.7,0.5,1.4,0.7
			s1.9,0.5,3.5,0.7c2.1,0.3,3.7,0.9,4.9,1.6s2.1,1.6,2.6,2.6s0.8,2,0.8,3c0,1.5-0.4,2.8-1.3,3.9c-0.9,1.1-2.2,2-4,2.6
			C203,36.4,200.8,36.7,198.4,36.7z"/>
		<path d="M223.8,36.2c-0.3,0-0.6-0.1-0.8-0.3s-0.4-0.5-0.4-0.8V6.6c0-0.3,0.1-0.6,0.4-0.8c0.2-0.2,0.5-0.3,0.8-0.3h5.9
			c0.5,0,0.9,0.1,1.2,0.4s0.4,0.5,0.5,0.6l7,12.2l7-12.2c0.1-0.1,0.3-0.3,0.5-0.6c0.3-0.3,0.7-0.4,1.2-0.4h5.9
			c0.3,0,0.6,0.1,0.8,0.3c0.2,0.2,0.3,0.5,0.3,0.8v28.5c0,0.3-0.1,0.6-0.3,0.8s-0.5,0.3-0.8,0.3h-6.6c-0.3,0-0.6-0.1-0.8-0.3
			s-0.3-0.5-0.3-0.8V20.8l-4,7c-0.1,0.2-0.3,0.5-0.6,0.7c-0.2,0.2-0.6,0.4-1,0.4H237c-0.4,0-0.7-0.1-1-0.4c-0.2-0.2-0.4-0.5-0.6-0.7
			l-4-7v14.3c0,0.3-0.1,0.6-0.3,0.8s-0.5,0.3-0.8,0.3C230.3,36.2,223.8,36.2,223.8,36.2z"/>
		<path d="M266.3,36.7c-1.6,0-3.1-0.3-4.3-0.9c-1.3-0.6-2.3-1.4-3-2.5c-0.7-1-1.1-2.2-1.1-3.5c0-2.1,0.9-3.8,2.6-5s4-2.1,6.9-2.5
			l5.1-0.8v-0.3c0-0.9-0.1-1.6-0.4-2c-0.3-0.5-0.9-0.7-1.7-0.7c-0.6,0-1.1,0.1-1.5,0.4s-0.7,0.6-1.1,1c-0.3,0.3-0.7,0.5-1.1,0.5
			h-6.2c-0.3,0-0.6-0.1-0.7-0.3c-0.2-0.2-0.2-0.4-0.2-0.7c0-0.5,0.2-1.2,0.7-1.9c0.4-0.7,1-1.4,1.9-2.1c0.9-0.7,2-1.3,3.4-1.7
			c1.4-0.5,3-0.7,5-0.7s3.7,0.2,5.1,0.7s2.6,1.1,3.5,1.8c0.9,0.8,1.6,1.8,2,2.9s0.7,2.4,0.7,3.8v13c0,0.3-0.1,0.6-0.3,0.8
			c-0.2,0.2-0.5,0.3-0.8,0.3H274c-0.3,0-0.6-0.1-0.8-0.3c-0.2-0.2-0.4-0.5-0.4-0.8v-1.4c-0.4,0.6-0.9,1.1-1.5,1.5s-1.4,0.8-2.2,1.1
			C268.3,36.5,267.4,36.7,266.3,36.7z M268.9,30.9c0.7,0,1.4-0.2,1.9-0.5s1-0.8,1.3-1.4s0.5-1.5,0.5-2.4v-0.3l-3.2,0.6
			c-1.1,0.2-1.8,0.5-2.3,0.9c-0.4,0.4-0.7,0.8-0.7,1.3c0,0.4,0.1,0.7,0.3,0.9c0.2,0.3,0.5,0.5,0.9,0.6
			C268,30.8,268.4,30.9,268.9,30.9z"/>
		<path d="M287.1,36.2c-0.3,0-0.6-0.1-0.8-0.3c-0.2-0.2-0.3-0.5-0.3-0.8v-29c0-0.3,0.1-0.6,0.3-0.8c0.2-0.2,0.5-0.3,0.8-0.3h6.4
			c0.3,0,0.6,0.1,0.8,0.3c0.2,0.2,0.3,0.5,0.3,0.8v14.5l5-6.6c0.1-0.1,0.3-0.3,0.5-0.5s0.5-0.3,0.9-0.3h7.4c0.3,0,0.5,0.1,0.7,0.3
			s0.3,0.4,0.3,0.7c0,0.1,0,0.2-0.1,0.4c0,0.1-0.1,0.2-0.2,0.3l-7,8.6l8.1,10.9c0.1,0.2,0.2,0.5,0.2,0.7c0,0.3-0.1,0.5-0.3,0.7
			c-0.2,0.2-0.4,0.3-0.7,0.3h-7.7c-0.4,0-0.8-0.1-0.9-0.3c-0.2-0.2-0.4-0.3-0.5-0.5l-5.7-7.9v7.5c0,0.3-0.1,0.6-0.3,0.8
			c-0.2,0.2-0.5,0.3-0.8,0.3h-6.4V36.2z"/>
		<path d="M324.2,36.7c-3.7,0-6.6-0.9-8.7-2.8c-2.2-1.9-3.3-4.8-3.3-8.7c0-0.1,0-0.3,0-0.5s0-0.3,0-0.4c0.1-2.4,0.6-4.5,1.6-6.2
			c1-1.7,2.4-3,4.1-3.9c1.8-0.9,3.9-1.3,6.3-1.3c2.7,0,4.9,0.5,6.7,1.6c1.8,1.1,3.1,2.5,4,4.3s1.3,3.8,1.3,6V26
			c0,0.3-0.1,0.6-0.4,0.8c-0.2,0.2-0.5,0.4-0.8,0.4h-13.6c0,0.1,0,0.2,0,0.3c0,0.7,0.1,1.3,0.3,1.9c0.2,0.5,0.5,1,0.9,1.3
			s0.9,0.5,1.5,0.5c0.4,0,0.7-0.1,1-0.2s0.5-0.3,0.7-0.5s0.4-0.4,0.5-0.5c0.3-0.3,0.5-0.4,0.7-0.5s0.4-0.1,0.8-0.1h6.9
			c0.3,0,0.5,0.1,0.7,0.3c0.2,0.2,0.3,0.4,0.2,0.7c0,0.5-0.3,1.2-0.7,1.9c-0.5,0.7-1.2,1.5-2.1,2.2s-2.1,1.3-3.5,1.8
			C327.7,36.4,326,36.7,324.2,36.7z M321.4,22.2h5.5v-0.1c0-0.8-0.1-1.5-0.3-2c-0.2-0.6-0.5-1-0.9-1.3s-0.9-0.4-1.5-0.4
			s-1.1,0.1-1.5,0.4s-0.7,0.7-0.9,1.3C321.5,20.6,321.4,21.3,321.4,22.2L321.4,22.2z"/>
		<path d="M340.9,36.2c-0.3,0-0.6-0.1-0.8-0.3c-0.2-0.2-0.3-0.5-0.3-0.8V14.5c0-0.3,0.1-0.6,0.3-0.8c0.2-0.2,0.5-0.3,0.8-0.3h6.4
			c0.3,0,0.6,0.1,0.8,0.3c0.2,0.2,0.3,0.5,0.3,0.8v1.6c0.9-0.9,1.9-1.5,3-2s2.4-0.7,3.7-0.7h2c0.3,0,0.6,0.1,0.8,0.3
			c0.2,0.2,0.4,0.5,0.4,0.8v5.7c0,0.3-0.1,0.6-0.4,0.8c-0.2,0.2-0.5,0.4-0.8,0.4h-4.9c-1.1,0-1.9,0.3-2.4,0.8
			c-0.6,0.5-0.8,1.3-0.8,2.4v10.5c0,0.3-0.1,0.6-0.3,0.8c-0.2,0.2-0.5,0.3-0.8,0.3C347.9,36.2,340.9,36.2,340.9,36.2z"/>
	</g>
</g>
<path d="M77,6.3c0-3.6,2.9-6.5,6.5-6.5s6.5,2.9,6.5,6.5s-2.9,6.5-6.5,6.5S77,9.9,77,6.3z M83.5,10.8c1.9,0,3.6-1.3,4.1-3
	c0.1-0.3-0.2-0.7-0.5-0.7h-7c-0.4,0-0.6,0.3-0.6,0.7C80,9.5,81.6,10.8,83.5,10.8L83.5,10.8z M81.5,3.8c-0.5,0-0.8,0.4-0.8,0.8
	c0,0.5,0.4,0.8,0.8,0.8c0.4,0,0.8-0.4,0.8-0.8C82.3,4.2,82,3.8,81.5,3.8z M84.7,5.3c0.4-0.6,1.3-0.6,1.8,0c0.1,0.2,0.4,0.2,0.6,0.1
	c0.2-0.1,0.2-0.4,0.1-0.6c-0.8-1-2.3-1-3.1,0c-0.1,0.2-0.1,0.4,0.1,0.6C84.3,5.5,84.5,5.5,84.7,5.3z"/>
</svg>
