<?xml version="1.0" encoding="utf-8"?>
<!-- Generator: Adobe Illustrator 24.1.2, SVG Export Plug-In . SVG Version: 6.00 Build 0)  -->
<svg version="1.1" id="Layer_1" xmlns="http://www.w3.org/2000/svg" xmlns:xlink="http://www.w3.org/1999/xlink" x="0px" y="0px"
	 viewBox="0 0 41.3 48.1" style="enable-background:new 0 0 41.3 48.1;" xml:space="preserve">
<path d="M0.6,25c0-11.3,9.1-20.4,20.4-20.4S41.3,13.8,41.3,25s-9.1,20.4-20.4,20.4S0.6,36.3,0.6,25z M20.9,39c6.1,0,11.2-4,12.7-9.4
	c0.3-1.1-0.6-2.1-1.7-2.1H10c-1.1,0-2,1-1.7,2.1C9.8,35,14.9,39,20.9,39L20.9,39z M14.6,17.4c-1.4,0-2.5,1.1-2.5,2.5
	c0,1.4,1.1,2.5,2.5,2.5c1.4,0,2.5-1.1,2.5-2.5C17.1,18.5,16,17.4,14.6,17.4z M24.5,22c1.4-1.9,4.2-1.9,5.6,0
	c0.4,0.6,1.2,0.7,1.8,0.3c0.6-0.4,0.7-1.2,0.3-1.8c-2.4-3.2-7.3-3.2-9.7,0c-0.4,0.6-0.3,1.4,0.3,1.8S24.1,22.5,24.5,22z"/>
</svg>
